<svg xmlns="http://www.w3.org/2000/svg" version="1.1" viewBox="-5.0 -10.0 110.0 135.0">
 <path d="m34.32 90h31.359c0.32031 0 0.62109-0.14844 0.80859-0.41016 0.19141-0.26172 0.23828-0.58984 0.14062-0.89844l-2.9102-8.8984c-0.12891-0.41016-0.51953-0.69141-0.94922-0.69141h-2.2188c-2.5117-6.3086-3.8594-12.012-4.1016-17.398 6.3594-7.6484 9.5781-17.012 9.8086-28.602 0.019532-0.85156-0.37891-1.6094-1.0195-2.1016 0.64844-1.7109 1.0195-3.5586 1.0195-5.4883v-0.078125-0.058594c-0.03125-3.2812-1.0898-6.3203-2.8594-8.8086-0.03125-0.039062-0.058594-0.089844-0.089844-0.12109-1.9219-2.6484-4.6406-4.6719-7.8203-5.6914-0.011719-0.011718-0.019531-0.011718-0.039062-0.011718-1.4805-0.46875-3.0586-0.73047-4.6992-0.73047-1.6094 0-3.1719 0.25-4.6406 0.71094-0.039063 0.011719-0.078125 0.019532-0.12109 0.039063-3.1602 1.0195-5.8711 3.0391-7.7891 5.6719-0.050781 0.050781-0.089844 0.10938-0.12891 0.17188-1.7812 2.5312-2.8398 5.6016-2.8398 8.9219 0 2.7617 0.73047 5.3398 2 7.5898-0.46094 0.57812-0.73828 1.4688-0.42188 2.8594 0.03125 0.10938 0.070312 0.21875 0.12891 0.32031 1.6016 2.5 2.9219 5.1211 3.9609 7.8203-4.0391 10.789-3.7383 20.578 0.87891 29.121-0.60938 2.0117-1.3711 3.9688-2.2383 5.8789h-2.3203c-0.42969 0-0.82031 0.28125-0.94922 0.69141l-2.9102 8.8984c-0.10156 0.30078-0.050781 0.64062 0.14062 0.89844 0.19141 0.25391 0.5 0.39453 0.82031 0.39453zm22.66-57.629-1.1914-1.6406 2.1094-6.4883 1.9297-0.62109 4.4219 2.3086c-0.078125 2.6484-0.92188 5.1094-2.3203 7.1719zm3.4688 2.5273c-1.0781 1.1094-2.3516 2.0312-3.7617 2.7305l0.55078-3.1992zm-6.5-4.9883h-6.3984l-1.9805-6.0781 5.1719-3.7617 5.1719 3.7617zm1.4102 3.6406-0.83984 4.9297c-1.1992 0.35156-2.4609 0.53906-3.7617 0.53906-1.3008 0-2.5586-0.19922-3.7617-0.53906l-0.83984-4.9297 1.1914-1.6289h6.8281zm7.3203-14.371c0.71875 1.3516 1.2109 2.8516 1.4297 4.4219l-2.8711-1.5zm-1.2695-1.9414-2.2109 4.4805-1.9297 0.62109-5.5312-4.0117v-2.0195l3.5781-3.4805c2.4453 0.86328 4.543 2.4102 6.0938 4.4102zm-10.648-5.2383c0.78906 0 1.5703 0.078125 2.3281 0.21094l-2.3203 2.2695-2.3203-2.2695c0.74219-0.13281 1.5117-0.21094 2.3125-0.21094zm-4.5703 0.80859 3.5703 3.4883v2.0195l-5.5312 4.0117-1.9219-0.62109-2.2109-4.4688c1.5508-2 3.6641-3.5469 6.0938-4.4297zm-7.3633 6.3828 1.4414 2.9219-2.8711 1.5c0.22266-1.582 0.71094-3.0742 1.4297-4.4219zm2.8633 4.4297 1.9219 0.62109 2.1094 6.4883-1.1914 1.6289-4.9492 0.73047c-1.3984-2.0508-2.2383-4.5195-2.3203-7.1719zm3.1367 14.008c-1.4102-0.69141-2.6797-1.6094-3.7617-2.7305l3.2109-0.46875zm-6.0977-2.2773c0-0.019531-0.011719-0.039062-0.011719-0.070312 1.8086 2.2188 4.2188 3.9297 6.9883 4.8789 0.039063 0.019532 0.089844 0.039063 0.12891 0.050782 1.5508 0.51953 3.1914 0.80859 4.9102 0.80859s3.3594-0.28906 4.9102-0.80859c0.050781-0.011719 0.10156-0.03125 0.14844-0.050782 2.9219-1.0117 5.4414-2.8711 7.2812-5.2812 0.070312-0.070312 0.14062-0.14844 0.19141-0.25 0.35156-0.48828 0.69141-0.98828 0.98047-1.5117-0.23828 11.25-3.3789 20.289-9.6094 27.629-2.6602 3.1484-5.8906 6-9.8203 8.6484 1.8203-8.7812 1.1289-17.602-1.9297-25.699 0-0.011718-0.011719-0.019531-0.011719-0.03125-1.0859-2.8828-2.4648-5.6641-4.1562-8.3125zm3.2383 11.82c2.2305 7.3711 2.4609 15.27 0.60156 23.102-3.0703-6.8945-3.2695-14.645-0.60156-23.102zm1.832 26.289c0.019531-0.039063 0.03125-0.089844 0.039063-0.12891 0.10938-0.37109 0.21875-0.75 0.32031-1.1211 4.1211-2.5898 7.5508-5.3594 10.43-8.4102 0.44141 4.8008 1.7109 9.8398 3.8203 15.301h-16.672c0.80078-1.8398 1.4922-3.7227 2.0625-5.6406zm-5.8516 7.6406h24.09l2.2617 6.8984h-28.602z"/>
 <path d="m45.109 83.551h-3.4414c-0.55078 0-1 0.44922-1 1s0.44922 1 1 1h3.4414c0.55078 0 1-0.44922 1-1s-0.44922-1-1-1z"/>
 <path d="m58.328 83.551h-8.2812c-0.55078 0-1 0.44922-1 1s0.44922 1 1 1h8.2812c0.55078 0 1-0.44922 1-1s-0.44922-1-1-1z"/>
<text x="0.0" y="117.5" font-size="5.0" font-weight="bold" font-family="Arbeit Regular, Helvetica, Arial-Unicode, Arial, Sans-serif" fill="#000000">Created by Rahmad romadoni</text><text x="0.0" y="122.5" font-size="5.0" font-weight="bold" font-family="Arbeit Regular, Helvetica, Arial-Unicode, Arial, Sans-serif" fill="#000000">from Noun Project</text></svg>