<svg xmlns="http://www.w3.org/2000/svg" viewBox="0 0 64 64">
  <rect width="64" height="64" rx="16" fill="#ede9fe"></rect>

  <path d="M22 15h20v10c0 8-4 14-10 17-6-3-10-9-10-17V15Z" fill="#ffffff" stroke="#475569" stroke-width="3" stroke-linejoin="round"></path>

  <path d="M22 20h-7v4c0 7 4 11 10 12" fill="none" stroke="#475569" stroke-width="3" stroke-linecap="round" stroke-linejoin="round"></path>

  <path d="M42 20h7v4c0 7-4 11-10 12" fill="none" stroke="#475569" stroke-width="3" stroke-linecap="round" stroke-linejoin="round"></path>

  <path d="M32 42v7" stroke="#475569" stroke-width="3" stroke-linecap="round"></path>

  <path d="M24 52h16" stroke="#475569" stroke-width="4" stroke-linecap="round"></path>

  <circle cx="32" cy="27" r="5" fill="#bbf7d0"></circle>
  <path d="m32 22 3 2-1 4h-4l-1-4 3-2Z" fill="#475569"></path>
</svg>